<?xml version="1.0" encoding="UTF-8"?>
<svg width="47px" height="30px" viewBox="0 0 47 30" version="1.1" xmlns="http://www.w3.org/2000/svg" xmlns:xlink="http://www.w3.org/1999/xlink">
    <!-- Generator: Sketch 52.4 (67378) - http://www.bohemiancoding.com/sketch -->
    <title>导读</title>
    <desc>Created with Sketch.</desc>
    <g id="Photo" stroke="none" stroke-width="1" fill="none" fill-rule="evenodd">
        <g id="专题-简洁版" transform="translate(-150.000000, -353.000000)" fill="#333333">
            <path d="M152.98913,354.056338 L167.391304,354.056338 L167.336957,356.098592 C167.336957,357.413152 167.300725,358.23474 167.228261,358.56338 C167.155797,358.845072 167.065218,359.173707 166.956522,359.549296 C166.811593,359.924885 166.630436,360.25352 166.413043,360.535211 C166.195651,360.816903 165.960146,361.039905 165.706522,361.204225 C165.452897,361.368545 165.253624,361.450704 165.108696,361.450704 C165.036232,361.497653 164.990942,361.50939 164.972826,361.485915 C164.95471,361.462441 164.945652,361.380282 164.945652,361.239437 L164.945652,360.957746 L155.434783,360.957746 C155.434511,364.111111 155.434375,365.695618 155.434375,365.711268 C155.434375,365.734742 156.757224,365.746479 161.141304,365.746479 C164.620109,365.746479 166.829466,365.746479 167.769375,365.746479 C168.709284,365.746479 169.507617,366.192488 170.164375,367.084507 L152.98913,367.084507 L152.98913,354.056338 Z M160.217391,355.394366 C157.065202,355.394366 155.480073,355.41784 155.461957,355.464789 C155.44384,355.511737 155.434783,356.215956 155.434783,357.577465 L155.434783,359.619718 L164.945652,359.619718 L164.945652,355.394366 L160.217391,355.394366 Z M163.695652,368.140845 L166.141304,368.140845 L166.141304,370.605634 L171.25,370.607344 C171.25,371.590677 170.661458,372.082344 169.484375,372.082344 C168.307292,372.082344 167.192935,372.083065 166.141304,372.084507 L166.141304,375.464789 C166.105072,377.76527 166.050725,379.68075 165.978261,380.00939 C165.869565,380.384978 165.742754,380.737088 165.597826,381.065728 C165.452898,381.347419 165.289856,381.605633 165.108696,381.840376 C164.927535,382.02817 164.710146,382.215962 164.456522,382.403756 C164.202897,382.544602 164.02174,382.638497 163.913043,382.685446 L163.695652,382.685446 L163.695652,372.014085 L150.054348,372.014085 L150.054348,371.309859 L150,370.676056 L163.695652,370.676056 L163.695652,368.140845 Z M155.543478,374.077465 C155.833335,374.077465 156.168476,374.124413 156.548913,374.21831 C156.92935,374.312207 157.264491,374.406103 157.554348,374.5 L158.315217,374.922535 L159.076087,375.485915 C159.329711,375.767607 159.547101,376.049294 159.728261,376.330986 C159.945653,376.659626 160.108695,376.941313 160.217391,377.176056 L160.380435,377.598592 L159.619565,379.288732 C159.076084,380.36855 158.786232,380.908451 158.75,380.908451 C158.713768,380.908451 158.659421,380.720659 158.586957,380.34507 C158.47826,379.969482 158.315218,379.500003 158.097826,378.93662 C157.880434,378.373237 157.663045,377.880284 157.445652,377.457746 C157.192028,377.035209 156.902176,376.612678 156.576087,376.190141 C156.213766,375.720655 155.905798,375.345072 155.652174,375.06338 C155.362317,374.781689 155.199276,374.640845 155.163043,374.640845 C155.126812,374.578248 155.108696,374.484351 155.108696,374.359155 L155.108696,374.077465 L155.543478,374.077465 Z M189.608696,353 L190.75,353.070423 L190.75,356.380282 L195.804348,356.380282 L195.804348,357.71831 L190.804348,357.71831 C190.762473,358.944406 190.436386,360.047693 189.826087,361.028169 L196.619565,361.028169 L196.619375,362.366197 C196.619792,364.631357 195.804638,366.227601 194.173913,367.15493 L194.173913,362.43662 L188.032609,362.366197 L181.836957,362.366197 L181.836957,361.098592 L185.152174,361.028169 L188.413043,361.028169 L188.413043,357.71831 L183.73913,357.71831 L183.73913,356.380282 L188.413043,356.380282 L188.413043,354.760563 C188.413043,353.680746 188.431159,353.117371 188.467391,353.070423 C188.503623,353.023474 188.884054,353 189.608696,353 Z M174.869565,355.323944 L179.269375,355.323944 L179.271739,356.028169 L179.271739,356.661972 L177.043478,356.661972 L174.869565,356.732394 L174.869565,355.323944 Z M190.369565,362.647887 L191.565217,362.647887 L191.51087,363.422535 C191.474638,364.032867 191.402174,364.924877 191.293478,366.098592 C191.221014,367.084512 191.11232,368.328631 190.967391,369.830986 L190.804348,371.661972 L191.021739,371.943662 L191.184783,372.225352 L194.065217,372.295775 L197,372.295775 C196.766078,373.203443 196.099411,373.649452 195,373.633803 C193.350883,373.610329 192.163043,373.657277 192.163043,373.704225 C192.163043,373.751174 192.326085,374.032861 192.652174,374.549296 C192.94203,374.971833 193.340577,375.511734 193.847826,376.169014 C194.318843,376.732397 194.442814,376.937073 194.880435,377.366197 C195.172182,377.65228 195.498269,377.910496 195.858696,378.140845 L195.859375,381.661972 C195.786911,381.615023 195.507142,381.601493 194.934783,381.169014 C194.362423,380.736536 194.228262,380.511739 193.902174,380.183099 C193.539853,379.80751 193.195654,379.384979 192.869565,378.915493 C192.471013,378.399058 192.163045,377.953054 191.945652,377.577465 L191.184783,376.169014 C190.96739,375.699528 190.750001,375.206575 190.532609,374.690141 C190.351448,374.173706 190.242754,373.915493 190.206522,373.915493 C190.17029,373.915493 190.079711,374.056337 189.934783,374.338028 C189.789854,374.61972 189.536234,375.018777 189.173913,375.535211 C188.884057,376.004697 188.530799,376.474176 188.11413,376.943662 C187.697462,377.413148 187.307973,377.812205 186.945652,378.140845 C186.619564,378.469485 186.202901,378.868542 185.695652,379.338028 C185.514492,379.478874 185.333334,379.631455 185.152174,379.795775 C184.971014,379.960095 184.780798,380.112675 184.581522,380.253521 C184.382245,380.394367 184.210146,380.535211 184.065217,380.676056 C183.594201,381.051645 182.923917,381.521124 182.054348,382.084507 C181.22101,382.694839 180.79529,383 180.777174,383 C180.759058,383 180.713768,382.894367 180.641304,382.683099 C180.56884,382.47183 180.550724,382.366197 180.586957,382.366197 L180.641304,382.295775 C180.677536,382.248826 180.740942,382.201878 180.831522,382.15493 C180.922102,382.107981 181.003623,382.037559 181.076087,381.943662 C181.438408,381.66197 181.764491,381.403757 182.054348,381.169014 C182.452901,380.840374 182.815216,380.511739 183.141304,380.183099 C183.539857,379.760561 183.938404,379.314556 184.336957,378.84507 C184.771741,378.375585 185.115941,377.953054 185.369565,377.577465 C185.514493,377.436619 185.804346,377.037562 186.23913,376.380282 C186.528987,375.957744 186.782608,375.558687 187,375.183099 C187.18116,374.80751 187.344202,374.455401 187.48913,374.126761 L187.706522,373.633803 L181.456522,373.633803 L181.347826,374.126761 C181.275362,374.408452 181.166667,374.713613 181.021739,375.042254 C180.913043,375.323945 180.768117,375.65258 180.586957,376.028169 C180.442028,376.309861 180.224639,376.638496 179.934783,377.014085 C179.681158,377.389673 179.37319,377.765256 179.01087,378.140845 C178.648549,378.469485 178.268118,378.774646 177.869565,379.056338 C177.43478,379.33803 177.144928,379.478873 177,379.478873 L176.782609,379.549296 L176.782609,364.760563 L173.902174,364.760563 L173.902174,363.422535 L179.282609,363.422535 L179.228261,369.619718 C179.228261,373.704246 179.246377,375.746479 179.282609,375.746479 L179.934783,375.112676 C180.333335,374.690139 180.623188,374.33803 180.804348,374.056338 L181.130435,373.633803 L180.097826,373.633803 L180.097826,372.295775 L188.141304,372.295775 L188.304348,371.661972 C188.376812,371.286383 188.449275,370.723008 188.521739,369.971831 C188.630435,369.220654 188.702898,368.516435 188.73913,367.859155 C188.775363,367.530515 188.82971,366.84977 188.902174,365.816901 C188.974638,365.20657 189.028985,364.549299 189.065217,363.84507 C189.101449,363.140842 189.128623,362.765258 189.146739,362.71831 C189.164855,362.671361 189.57246,362.647887 190.369565,362.647887 Z M184.880435,363.633803 C185.387684,363.680751 185.768115,363.727699 186.021739,363.774648 C186.311596,363.868545 186.601448,363.985915 186.891304,364.126761 C187.144929,364.267606 187.380434,364.40845 187.597826,364.549296 C187.815218,364.690142 188.032608,364.901407 188.25,365.183099 C188.43116,365.417842 188.548913,365.593896 188.603261,365.711268 C188.657609,365.828639 188.449278,366.239433 187.978261,366.943662 L187.271739,368.070423 L187.054348,367.43662 C186.873188,366.967134 186.655798,366.544603 186.402174,366.169014 C186.184782,365.793425 185.931161,365.46479 185.641304,365.183099 C185.315216,364.854458 185.079711,364.643193 184.934783,364.549296 C184.789854,364.361501 184.608697,364.220658 184.391304,364.126761 C184.210144,363.985915 184.119565,363.856808 184.119565,363.739437 C184.119565,363.622065 184.373186,363.586854 184.880435,363.633803 Z M182.869565,367.15493 C183.195654,367.15493 183.449274,367.178404 183.630435,367.225352 C183.811595,367.272301 184.101447,367.38967 184.5,367.577465 C184.826089,367.718311 185.115941,367.882628 185.369565,368.070423 C185.586958,368.211268 185.87681,368.469482 186.23913,368.84507 C186.601451,369.173711 186.927535,369.52582 187.217391,369.901408 C187.54348,370.323946 187.688406,370.558685 187.652174,370.605634 C187.615942,370.652582 187.271742,370.840374 186.619565,371.169014 C185.967388,371.544603 185.605073,371.755868 185.532609,371.802817 C185.496377,371.802817 185.387682,371.685447 185.206522,371.450704 C185.061593,371.169013 184.826089,370.769956 184.5,370.253521 C184.137679,369.784035 183.784422,369.361504 183.440217,368.985915 C183.096013,368.610327 182.797103,368.305165 182.543478,368.070423 C182.326086,367.929577 182.126812,367.812207 181.945652,367.71831 C181.764492,367.624413 181.673913,367.553991 181.673913,367.507042 C181.673913,367.460094 181.692029,367.389672 181.728261,367.295775 C181.764493,367.248826 181.900361,367.201878 182.13587,367.15493 C182.371378,367.107981 182.615941,367.107981 182.869565,367.15493 Z" id="导读"></path>
        </g>
    </g>
</svg>